<svg width="432" height="172" viewBox="0 0 432 172" fill="none" xmlns="http://www.w3.org/2000/svg">
<path d="M37.5762 36.4756C37.3112 42.4736 35.625 47.0143 32.5176 50.0977C29.4102 53.181 25.026 54.7227 19.3652 54.7227C13.4154 54.7227 8.85059 52.7715 5.6709 48.8691C2.5153 44.9427 0.9375 39.3542 0.9375 32.1035V23.251C0.9375 16.0244 2.57552 10.46 5.85156 6.55762C9.1276 2.63118 13.6803 0.667969 19.5098 0.667969C25.2428 0.667969 29.5908 2.26986 32.5537 5.47363C35.5407 8.67741 37.2389 13.2783 37.6484 19.2764H26.9893C26.8929 15.5667 26.3148 13.0133 25.2549 11.6162C24.2191 10.195 22.304 9.48438 19.5098 9.48438C16.6673 9.48438 14.6559 10.484 13.4756 12.4834C12.2952 14.4587 11.6689 17.7227 11.5967 22.2754V32.2119C11.5967 37.4391 12.1748 41.0283 13.3311 42.9795C14.5114 44.9307 16.5228 45.9062 19.3652 45.9062C22.1595 45.9062 24.0866 45.2318 25.1465 43.8828C26.2064 42.5098 26.8086 40.0407 26.9531 36.4756H37.5762ZM118.152 32.4287C118.152 39.4867 116.478 44.9668 113.13 48.8691C109.806 52.7715 105.181 54.7227 99.2549 54.7227C93.3532 54.7227 88.7161 52.7956 85.3438 48.9414C81.9714 45.0632 80.2611 39.6432 80.2129 32.6816V23.6846C80.2129 16.458 81.887 10.8213 85.2354 6.77441C88.5837 2.70345 93.2327 0.667969 99.1826 0.667969C105.036 0.667969 109.649 2.66732 113.021 6.66602C116.394 10.6406 118.104 16.2292 118.152 23.4316V32.4287ZM107.493 23.6123C107.493 18.8669 106.819 15.3379 105.47 13.0254C104.121 10.7129 102.025 9.55664 99.1826 9.55664C96.3643 9.55664 94.2806 10.6768 92.9316 12.917C91.5827 15.1331 90.8841 18.5176 90.8359 23.0703V32.4287C90.8359 37.0296 91.5225 40.4261 92.8955 42.6182C94.2686 44.7861 96.3883 45.8701 99.2549 45.8701C102.025 45.8701 104.085 44.8102 105.434 42.6904C106.783 40.5465 107.469 37.2344 107.493 32.7539V23.6123ZM176.651 1.39062L186.588 39.4385L196.488 1.39062H210.363V54H199.704V39.7637L200.68 17.8311L190.165 54H182.938L172.424 17.8311L173.399 39.7637V54H162.776V1.39062H176.651ZM267.02 54H256.396V1.39062H267.02V54ZM349.728 54H339.104L323.567 19.4932V54H312.944V1.39062H323.567L339.141 35.9336V1.39062H349.728V54ZM431.026 48.0381C428.979 50.2542 426.462 51.9284 423.475 53.0605C420.512 54.1686 417.26 54.7227 413.719 54.7227C407.673 54.7227 402.975 52.8558 399.627 49.1221C396.279 45.3643 394.556 39.9082 394.46 32.7539V23.2871C394.46 16.0365 396.038 10.46 399.193 6.55762C402.373 2.63118 406.998 0.667969 413.068 0.667969C418.777 0.667969 423.077 2.07715 425.968 4.89551C428.882 7.71387 430.569 12.1341 431.026 18.1562H420.692C420.403 14.8079 419.705 12.5316 418.597 11.3271C417.489 10.0986 415.754 9.48438 413.394 9.48438C410.527 9.48438 408.443 10.5322 407.143 12.6279C405.842 14.7236 405.167 18.0599 405.119 22.6367V32.1758C405.119 36.9694 405.83 40.4622 407.251 42.6543C408.696 44.8223 411.057 45.9062 414.333 45.9062C416.429 45.9062 418.127 45.4847 419.428 44.6416L420.367 43.9912V34.3438H412.924V26.3223H431.026V48.0381ZM99.6523 157.197C99.6523 155.053 99.0983 153.439 97.9902 152.355C96.9062 151.247 94.9189 150.103 92.0283 148.923C86.7529 146.924 82.959 144.587 80.6465 141.913C78.334 139.215 77.1777 136.035 77.1777 132.374C77.1777 127.942 78.7435 124.389 81.875 121.715C85.0306 119.017 89.0293 117.668 93.8711 117.668C97.099 117.668 99.9775 118.354 102.507 119.728C105.036 121.076 106.975 122.992 108.324 125.473C109.697 127.954 110.384 130.772 110.384 133.928H99.7969C99.7969 131.471 99.2669 129.604 98.207 128.327C97.1712 127.026 95.6657 126.376 93.6904 126.376C91.8356 126.376 90.3903 126.93 89.3545 128.038C88.3187 129.122 87.8008 130.591 87.8008 132.446C87.8008 133.892 88.3789 135.204 89.5352 136.385C90.6914 137.541 92.7389 138.745 95.6777 139.998C100.809 141.853 104.53 144.129 106.843 146.827C109.179 149.525 110.348 152.958 110.348 157.125C110.348 161.702 108.89 165.279 105.976 167.856C103.061 170.434 99.0983 171.723 94.0879 171.723C90.6914 171.723 87.596 171.024 84.8018 169.627C82.0075 168.23 79.8154 166.23 78.2256 163.629C76.6598 161.027 75.877 157.956 75.877 154.415H86.5361C86.5361 157.45 87.1263 159.654 88.3066 161.027C89.487 162.4 91.4141 163.087 94.0879 163.087C97.7975 163.087 99.6523 161.124 99.6523 157.197ZM191.43 149.429C191.43 156.487 189.756 161.967 186.407 165.869C183.083 169.771 178.458 171.723 172.532 171.723C166.631 171.723 161.993 169.796 158.621 165.941C155.249 162.063 153.538 156.643 153.49 149.682V140.685C153.49 133.458 155.164 127.821 158.513 123.774C161.861 119.703 166.51 117.668 172.46 117.668C178.313 117.668 182.926 119.667 186.299 123.666C189.671 127.641 191.382 133.229 191.43 140.432V149.429ZM180.771 140.612C180.771 135.867 180.096 132.338 178.747 130.025C177.398 127.713 175.302 126.557 172.46 126.557C169.642 126.557 167.558 127.677 166.209 129.917C164.86 132.133 164.161 135.518 164.113 140.07V149.429C164.113 154.03 164.8 157.426 166.173 159.618C167.546 161.786 169.666 162.87 172.532 162.87C175.302 162.87 177.362 161.81 178.711 159.69C180.06 157.547 180.746 154.234 180.771 149.754V140.612ZM273.09 149.429C273.09 156.487 271.416 161.967 268.067 165.869C264.743 169.771 260.118 171.723 254.192 171.723C248.291 171.723 243.654 169.796 240.281 165.941C236.909 162.063 235.199 156.643 235.15 149.682V140.685C235.15 133.458 236.825 127.821 240.173 123.774C243.521 119.703 248.17 117.668 254.12 117.668C259.974 117.668 264.587 119.667 267.959 123.666C271.331 127.641 273.042 133.229 273.09 140.432V149.429ZM262.431 140.612C262.431 135.867 261.756 132.338 260.407 130.025C259.058 127.713 256.963 126.557 254.12 126.557C251.302 126.557 249.218 127.677 247.869 129.917C246.52 132.133 245.822 135.518 245.773 140.07V149.429C245.773 154.03 246.46 157.426 247.833 159.618C249.206 161.786 251.326 162.87 254.192 162.87C256.963 162.87 259.022 161.81 260.371 159.69C261.72 157.547 262.407 154.234 262.431 149.754V140.612ZM354.497 171H343.874L328.337 136.493V171H317.714V118.391H328.337L343.91 152.934V118.391H354.497V171Z" fill="#FCFAEB"/>
</svg>
